# xmcd
#
# Track frame offsets:
#	150
#	16878
#	34983
#	47953
#	68227
#	88866
#	104328
#	120384
#	138184
#	158017
#	172937
#	186860
#	202920
#	218567
#	232223
#	249774
#	267768
#	281430
#	298605
#	314769
#
# Disc length: 4410 seconds
#
# Revision: 1
# Processed by: cddbd v1.5.2PL0 Copyright (c) Steve Scherf et al.
# Submitted via: audiograbber 1.83.01
#
DISCID=1c113814
DTITLE=Various Artist - CMT's 100 Greatest Country Duets - CD 3
DYEAR=2006
DGENRE=Country
TTITLE0=Rosanne Cash and Johnny Cash - September When It Comes
TTITLE1=Emmylou Harris and Roy Orbison - That Lovin' You Feelin' Again
TTITLE2=David Houston and Tammy Wynette - My Elusive Dreams
TTITLE3=Faith Hill and Tim McGraw - Just To Hear You Say That You
TTITLE4=Lyle Lovett and Rev. Al Green - Funny How Time Slips Away
TTITLE5=Alison Krauss and James Taylor - How's The World Treating You
TTITLE6=Garth Brooks and Trisha Yearwood - Squeeze Me In
TTITLE7=Reba McEntire and Brooks and Dunn - If You See Him, If You See Her
TTITLE8=Alan Jackson and George Strait - Murder on Music Row
TTITLE9=Waylon Jennings and WIllie Nelson - Luckenbach, Texas
TTITLE10=Vince Gill and Alison Krauss w. Union Station - High Lonesome Sound
TTITLE11=Keith Whitley and Lorrie Morgan - 'Til a Tear Becomes A Rose
TTITLE12=Ricky van Shelton and Dolly Parton - Rockin' Years
TTITLE13=Dolly Parton and Porter Wagoner - Daddy Was An Old Time Preacher
TTITLE14=Jimmy Buffett and Alan Jackson - It's Five O'Clock Somewhere
TTITLE15=Alison Krauss and Gillian Welch - I'll Fly Away
TTITLE16=Kenny Rogers and Dottie West - What Are We Doin' In Love
TTITLE17=George Jones and James Taylor - Bartender's Blues
TTITLE18=Patty Loveless and Travis Tritt - Out Of Control Raging Fire
TTITLE19=Earl Thomas Conley and Emmylou Harris - We Believe In Happy Endings
EXTD=
EXTT0=
EXTT1=
EXTT2=
EXTT3=
EXTT4=
EXTT5=
EXTT6=
EXTT7=
EXTT8=
EXTT9=
EXTT10=
EXTT11=
EXTT12=
EXTT13=
EXTT14=
EXTT15=
EXTT16=
EXTT17=
EXTT18=
EXTT19=
PLAYORDER=
